# xmcd
#
# Track frame offsets:
#	150
#	14742
#	43602
#	78167
#	112342
#	124162
#	151315
#	186637
#	208180
#
# Disc length: 3018 seconds
#
# Revision: 0
# Processed by: cddbd v1.5.2PL0 Copyright (c) Steve Scherf et al.
# Submitted via: audiograbber 1.83.01
#
DISCID=820bc809
DTITLE=BAP - Live - Bess demnähx [CD-R 2]
DYEAR=1983
DGENRE=Rock
TTITLE0=Su 'ne Morje [live]
TTITLE1=Helfe kann dir keiner [live]
TTITLE2=Verdamp lang her [live]
TTITLE3=Frau ich freu mich [live]
TTITLE4=Waschsalon [live]
TTITLE5=Liebesleed [live]
TTITLE6=Stell dir vür [live]
TTITLE7=Et letzte Leed [live]
TTITLE8=Hundert mohl [live]
EXTD=
EXTT0=
EXTT1=
EXTT2=
EXTT3=
EXTT4=
EXTT5=
EXTT6=
EXTT7=
EXTT8=
PLAYORDER=
